<?xml version="1.0" standalone="no"?>
<!DOCTYPE svg PUBLIC "-//W3C//DTD SVG 20010904//EN"
 "http://www.w3.org/TR/2001/REC-SVG-20010904/DTD/svg10.dtd">
<svg version="1.0" xmlns="http://www.w3.org/2000/svg"
 width="1254.000000pt" height="1254.000000pt" viewBox="0 0 1254.000000 1254.000000"
 preserveAspectRatio="xMidYMid meet">

<g transform="translate(0.000000,1254.000000) scale(0.100000,-0.100000)"
fill="#ffffff" stroke="none">
<path d="M4392 10354 c-161 -35 -309 -120 -419 -239 -102 -111 -158 -212 -200
-366 -17 -60 -18 -151 -18 -1319 0 -976 3 -1267 13 -1309 44 -186 171 -381
314 -479 79 -55 204 -111 289 -132 78 -18 118 -20 556 -20 l473 0 32 29 c28
25 33 36 32 71 -2 53 -27 79 -85 91 -24 4 -239 8 -478 9 -476 0 -494 2 -621
63 -91 44 -224 177 -268 270 -44 91 -62 167 -62 257 0 95 20 173 67 262 71
136 199 242 357 295 l81 28 1720 5 1720 5 56 28 c84 41 143 98 181 175 l33 67
5 755 5 755 137 0 c152 0 173 -7 212 -75 19 -32 20 -59 17 -877 -2 -789 -3
-848 -20 -904 -50 -158 -197 -289 -360 -319 -32 -6 -285 -10 -627 -10 l-574 0
0 -22 c0 -44 42 -109 88 -139 l46 -29 794 0 c883 0 852 -2 987 68 153 80 274
249 295 412 5 44 9 357 7 750 l-2 675 -28 57 c-16 32 -44 70 -65 86 -72 57
-99 65 -223 70 l-117 4 -4 107 c-4 119 -19 159 -86 233 -81 90 -137 110 -327
117 l-150 6 -5 110 c-4 85 -11 121 -28 159 -31 68 -85 131 -146 171 -104 69
10 65 -1856 64 -1388 -1 -1696 -3 -1748 -15z m3473 -203 c50 -23 91 -70 105
-121 7 -26 10 -334 8 -937 -3 -885 -3 -899 -23 -933 -12 -19 -40 -48 -64 -65
l-43 -30 -1721 -5 c-1941 -6 -1754 3 -1934 -86 -66 -33 -114 -66 -167 -115
-41 -38 -75 -69 -77 -69 -2 0 -3 417 -2 926 1 678 5 939 13 977 7 29 30 90 51
136 31 67 54 98 116 160 88 87 166 132 275 161 70 18 131 19 1748 19 1604 1
1677 0 1715 -18z"/>
<path d="M4557 9590 c-49 -39 -42 -116 14 -145 41 -22 1192 -22 1244 -1 62 26
74 89 26 137 l-29 29 -615 0 c-598 0 -615 -1 -640 -20z"/>
<path d="M4554 9166 c-38 -32 -39 -86 -1 -124 l27 -27 335 0 335 0 27 27 c38
38 37 92 -1 124 l-27 24 -334 0 -334 0 -27 -24z"/>
<path d="M4570 8767 c-38 -19 -54 -60 -40 -102 21 -65 31 -66 394 -63 l324 3
25 23 c48 45 43 108 -12 137 -25 13 -80 15 -348 15 -236 0 -324 -4 -343 -13z"/>
<path d="M4492 7733 c-41 -16 -32 -83 11 -83 29 0 47 18 47 47 0 18 -28 46
-42 42 -2 0 -9 -3 -16 -6z"/>
<path d="M4761 7724 c-37 -26 -21 -74 26 -74 29 0 48 33 34 59 -15 27 -35 32
-60 15z"/>
<path d="M5046 7727 c-38 -27 2 -95 42 -71 24 16 28 55 6 71 -10 7 -21 13 -24
13 -3 0 -14 -6 -24 -13z"/>
<path d="M5325 7720 c-37 -41 24 -97 63 -58 17 17 15 42 -6 61 -24 22 -35 21
-57 -3z"/>
<path d="M5622 7724 c-42 -29 -17 -82 32 -70 25 6 42 38 31 56 -14 23 -42 29
-63 14z"/>
<path d="M4204 7716 c-15 -40 21 -80 54 -60 37 24 21 74 -25 74 -13 0 -26 -6
-29 -14z"/>
<path d="M4176 7445 c-20 -21 -20 -39 0 -59 20 -21 30 -20 55 5 18 18 19 23 6
42 -18 28 -40 32 -61 12z"/>
<path d="M4478 7449 c-24 -14 -23 -56 2 -69 42 -22 82 34 48 68 -14 14 -27 15
-50 1z"/>
<path d="M4756 7444 c-9 -8 -16 -21 -16 -28 0 -15 32 -46 47 -46 13 0 43 33
43 48 0 15 -29 42 -45 42 -7 0 -21 -7 -29 -16z"/>
<path d="M5048 7449 c-24 -14 -23 -56 2 -69 42 -22 82 34 48 68 -14 14 -27 15
-50 1z"/>
<path d="M5326 7444 c-9 -8 -16 -22 -16 -29 0 -17 27 -45 44 -45 17 0 46 33
46 51 0 37 -47 51 -74 23z"/>
<path d="M4170 7156 c-34 -42 22 -94 60 -56 24 24 25 34 4 54 -19 20 -48 20
-64 2z"/>
<path d="M4470 7155 c-7 -8 -10 -25 -6 -40 5 -20 13 -25 36 -25 36 0 56 30 40
60 -13 24 -52 26 -70 5z"/>
<path d="M4752 7158 c-27 -27 -6 -68 35 -68 29 0 48 33 33 60 -12 22 -49 27
-68 8z"/>
<path d="M5040 7156 c-6 -8 -10 -25 -8 -38 2 -19 9 -23 38 -23 31 0 35 3 38
29 5 42 -41 64 -68 32z"/>
<path d="M5322 7158 c-28 -28 -3 -72 39 -66 30 4 47 33 33 56 -14 21 -55 27
-72 10z"/>
<path d="M4190 6871 c-16 -31 4 -63 37 -59 34 4 52 32 37 56 -16 26 -60 28
-74 3z"/>
<path d="M4470 6871 c-16 -31 4 -63 37 -59 34 4 52 32 37 56 -16 26 -60 28
-74 3z"/>
<path d="M4752 6878 c-27 -27 -6 -68 35 -68 29 0 48 33 33 60 -12 22 -49 27
-68 8z"/>
<path d="M5041 6876 c-20 -23 -10 -60 17 -64 32 -5 54 16 50 47 -2 20 -9 27
-29 29 -14 2 -31 -4 -38 -12z"/>
<path d="M5322 6878 c-19 -19 -14 -45 10 -62 19 -13 25 -14 43 -2 25 16 31 42
15 61 -15 18 -52 19 -68 3z"/>
<path d="M7498 6864 c-34 -18 -48 -43 -48 -84 0 -42 15 -67 50 -85 25 -13 98
-15 484 -15 289 0 474 -4 508 -11 76 -16 205 -80 265 -134 66 -58 144 -174
173 -256 31 -89 38 -233 15 -319 -51 -198 -208 -365 -405 -433 l-65 -22 -1735
-5 -1735 -5 -67 -33 c-83 -41 -168 -130 -200 -211 l-23 -56 -3 -727 -3 -728
-106 0 c-119 0 -171 17 -208 68 -20 26 -20 43 -20 877 l0 850 23 57 c49 122
149 220 276 272 49 20 70 21 666 26 l615 5 3 23 c6 37 -35 107 -80 138 l-41
29 -784 3 c-878 3 -853 4 -993 -69 -135 -70 -234 -186 -281 -331 l-24 -73 0
-695 0 -695 28 -57 c30 -62 85 -113 145 -134 21 -7 81 -13 140 -14 l102 0 0
-78 c0 -153 52 -267 153 -336 75 -50 140 -66 274 -66 l113 0 0 -58 c0 -192 82
-331 238 -405 l67 -32 1735 0 1735 0 78 23 c243 70 435 246 530 484 66 165 62
66 62 1433 l0 1240 -24 75 c-90 286 -308 492 -594 560 -76 18 -118 20 -547 20
-391 -1 -469 -3 -492 -16z m1470 -2304 c-4 -784 -4 -785 -27 -860 -65 -214
-215 -372 -411 -434 l-81 -26 -1692 0 -1693 0 -44 23 c-24 12 -58 39 -74 60
l-31 39 -3 881 c-1 485 0 897 3 915 6 34 61 103 99 125 16 9 434 13 1751 17
1631 5 1733 7 1790 24 139 42 284 126 370 216 l40 41 3 -118 c1 -65 1 -471 0
-903z"/>
<path d="M7313 4240 c-87 -53 -83 -178 8 -229 66 -37 152 -14 185 50 32 63 4
156 -56 186 -37 19 -101 16 -137 -7z"/>
<path d="M7759 4237 c-85 -57 -69 -193 27 -233 44 -18 68 -18 111 3 69 32 94
123 53 190 -39 64 -128 83 -191 40z"/>
<path d="M8206 4229 c-81 -70 -58 -197 41 -230 73 -24 154 19 174 93 34 126
-118 223 -215 137z"/>
<path d="M7520 6531 c-16 -31 4 -63 37 -59 34 4 52 32 37 56 -16 26 -60 28
-74 3z"/>
<path d="M7814 6536 c-15 -40 21 -80 54 -60 37 24 21 74 -25 74 -13 0 -26 -6
-29 -14z"/>
<path d="M8102 6533 c-6 -11 -6 -27 -1 -41 7 -18 15 -23 35 -20 35 4 53 31 38
56 -16 24 -60 28 -72 5z"/>
<path d="M8392 6538 c-29 -29 -3 -72 40 -66 19 2 23 9 23 38 0 30 -4 35 -25
38 -14 2 -31 -3 -38 -10z"/>
<path d="M8672 6538 c-29 -29 -2 -72 40 -66 42 6 32 78 -11 78 -9 0 -22 -5
-29 -12z"/>
<path d="M7530 6262 c-17 -13 -21 -24 -16 -40 9 -26 50 -39 71 -22 21 18 19
57 -4 70 -25 13 -25 13 -51 -8z"/>
<path d="M7826 6267 c-38 -27 2 -95 42 -71 24 16 28 55 6 71 -10 7 -21 13 -24
13 -3 0 -14 -6 -24 -13z"/>
<path d="M8116 6267 c-38 -27 2 -95 42 -71 24 16 28 55 6 71 -10 7 -21 13 -24
13 -3 0 -14 -6 -24 -13z"/>
<path d="M8398 6269 c-21 -12 -24 -49 -6 -67 18 -18 43 -15 63 8 17 18 17 21
1 45 -18 27 -31 30 -58 14z"/>
<path d="M8691 6261 c-25 -25 -17 -59 15 -67 14 -4 31 -1 39 6 21 18 19 57 -4
70 -26 13 -28 13 -50 -9z"/>
<path d="M7530 5980 c-11 -11 -20 -24 -20 -29 0 -16 30 -41 49 -41 40 0 57 61
22 80 -26 13 -28 13 -51 -10z"/>
<path d="M7828 5989 c-11 -6 -18 -22 -18 -39 0 -23 5 -31 25 -36 15 -4 32 -1
40 6 21 18 19 57 -4 70 -23 12 -22 12 -43 -1z"/>
<path d="M8118 5989 c-11 -6 -18 -22 -18 -39 0 -23 5 -31 25 -36 15 -4 32 -1
40 6 21 18 19 57 -4 70 -23 12 -22 12 -43 -1z"/>
<path d="M8398 5989 c-22 -12 -23 -52 -3 -69 19 -15 61 -6 69 16 7 19 -19 64
-37 64 -6 0 -20 -5 -29 -11z"/>
<path d="M8685 5976 c-19 -29 -10 -54 21 -62 30 -8 54 11 54 40 0 47 -49 62
-75 22z"/>
<path d="M7237 5702 c-42 -46 14 -100 57 -56 21 20 20 30 -4 54 -25 25 -32 25
-53 2z"/>
<path d="M7530 5700 c-24 -24 -25 -34 -4 -54 32 -32 79 -10 72 35 -5 33 -44
43 -68 19z"/>
<path d="M8681 5704 c-26 -18 -25 -51 2 -68 23 -15 51 3 55 37 4 35 -26 52
-57 31z"/>
<path d="M7814 5696 c-9 -23 -1 -48 19 -60 25 -16 52 4 52 40 0 25 -4 29 -33
32 -22 2 -34 -2 -38 -12z"/>
<path d="M8107 5703 c-11 -11 -8 -48 5 -61 30 -30 75 0 64 43 -5 19 -13 25
-35 25 -15 0 -31 -3 -34 -7z"/>
<path d="M8392 5698 c-30 -30 0 -75 42 -64 27 7 38 35 24 60 -11 19 -49 21
-66 4z"/>
</g>
</svg>
