<?xml version="1.0" standalone="no"?>
<!DOCTYPE svg PUBLIC "-//W3C//DTD SVG 20010904//EN"
 "http://www.w3.org/TR/2001/REC-SVG-20010904/DTD/svg10.dtd">
<svg version="1.0" xmlns="http://www.w3.org/2000/svg"
 width="1254.000000pt" height="1254.000000pt" viewBox="0 0 1254.000000 1254.000000"
 preserveAspectRatio="xMidYMid meet">

<g transform="translate(0.000000,1254.000000) scale(0.100000,-0.100000)"
fill="#000000" stroke="none">
<path d="M3605 9874 c-38 -8 -113 -36 -165 -61 -170 -82 -303 -244 -357 -433
-17 -62 -18 -165 -18 -2420 0 -2252 1 -2358 18 -2415 39 -127 84 -203 176
-295 130 -131 252 -187 426 -199 l100 -6 6 -85 c8 -103 23 -165 60 -248 102
-227 308 -368 567 -388 l88 -7 16 -77 c23 -112 62 -183 143 -266 49 -50 90
-80 138 -103 137 -65 7 -62 2200 -59 l1992 3 70 21 c159 48 265 114 380 236
76 81 123 153 162 248 56 139 54 25 51 2455 l-3 2240 -23 58 c-33 81 -106 174
-172 218 -88 58 -160 80 -282 86 l-108 6 0 46 c0 129 -70 283 -179 392 -123
123 -282 188 -462 189 l-57 0 -4 163 c-4 140 -9 173 -31 242 -35 107 -88 193
-168 273 -81 81 -150 124 -266 166 l-88 31 -2070 2 c-1794 1 -2079 0 -2140
-13z m4278 -251 c125 -60 226 -183 256 -313 7 -30 11 -649 11 -1877 l0 -1833
-568 0 -568 0 -52 -26 c-58 -29 -96 -69 -126 -134 -20 -44 -21 -60 -23 -605
l-2 -560 -1568 -3 c-1715 -2 -1607 -6 -1726 55 -109 55 -204 185 -227 312 -14
77 -13 4554 1 4641 26 163 145 305 299 357 l65 23 2080 -3 2080 -2 68 -32z
m731 -871 c127 -59 214 -173 236 -307 6 -38 10 -868 10 -2260 0 -2403 3 -2274
-57 -2395 -36 -70 -123 -157 -193 -192 -124 -62 16 -58 -2178 -58 -2223 0
-2081 -4 -2199 66 -32 20 -73 50 -91 67 -80 77 -132 200 -132 313 l0 64 1908
0 c2098 0 1952 -4 2092 61 173 81 305 247 345 435 13 59 15 362 15 2158 l0
2089 89 -5 c72 -4 102 -11 155 -36z m-614 -3381 c0 -4 -217 -223 -482 -485
l-483 -476 -3 466 c-2 424 -1 469 14 486 16 17 43 18 486 18 258 0 468 -4 468
-9z m140 -758 c-17 -80 -64 -165 -123 -221 -115 -108 -175 -122 -537 -121
l-275 0 470 465 470 466 3 -268 c1 -165 -2 -289 -8 -321z"/>
<path d="M4037 8480 c-38 -30 -52 -80 -33 -123 30 -72 -103 -67 1686 -67 1728
0 1662 -2 1689 48 20 37 13 98 -13 129 l-24 28 -1640 3 c-1633 2 -1639 2
-1665 -18z"/>
<path d="M4050 7557 c-34 -17 -63 -79 -55 -117 4 -16 20 -41 37 -55 l30 -25
1640 2 1640 3 24 28 c26 30 33 92 14 128 -28 52 58 49 -1687 49 -1269 0 -1623
-3 -1643 -13z"/>
<path d="M4044 6611 c-36 -22 -58 -75 -48 -115 3 -14 20 -37 36 -51 l30 -25
879 0 c956 0 921 -2 947 55 20 44 14 82 -17 117 l-29 33 -884 3 c-857 2 -884
2 -914 -17z"/>
</g>
</svg>
