<?xml version="1.0" standalone="no"?>
<!DOCTYPE svg PUBLIC "-//W3C//DTD SVG 20010904//EN"
 "http://www.w3.org/TR/2001/REC-SVG-20010904/DTD/svg10.dtd">
<svg version="1.0" xmlns="http://www.w3.org/2000/svg"
 width="1254.000000pt" height="1254.000000pt" viewBox="0 0 1254.000000 1254.000000"
 preserveAspectRatio="xMidYMid meet">

<g transform="translate(0.000000,1254.000000) scale(0.100000,-0.100000)"
fill="#000000" stroke="none">
<path d="M4675 9349 c-403 -6 -414 -8 -565 -82 -148 -73 -295 -236 -357 -397
-45 -114 -46 -125 -50 -482 l-5 -348 -350 0 c-286 0 -361 -3 -411 -16 -133
-34 -250 -117 -327 -232 -76 -113 -100 -216 -100 -439 l0 -143 -57 0 c-79 0
-179 -23 -250 -56 -123 -58 -228 -204 -253 -352 -7 -47 -10 -357 -8 -1052 l3
-985 23 -59 c62 -164 175 -269 333 -311 44 -12 176 -15 727 -15 l672 0 0 -62
c0 -98 34 -239 79 -331 73 -151 185 -263 336 -338 149 -73 5 -69 2146 -69
1891 0 1927 0 2005 20 122 31 215 83 312 174 133 126 211 282 230 461 l7 70
545 5 c518 5 548 6 601 26 137 49 262 159 319 279 63 132 61 76 58 1508 l-3
1302 -23 67 c-47 138 -155 264 -284 329 -112 57 -135 59 -700 59 l-518 0 0
406 c0 462 -3 490 -75 639 -73 151 -180 264 -324 338 -98 52 -190 76 -325 88
-126 10 -2733 9 -3411 -2z m3516 -245 c177 -53 311 -180 371 -352 l23 -67 0
-2225 0 -2225 -22 -71 c-13 -39 -42 -100 -65 -135 l-43 -64 -5 420 c-5 402 -6
422 -26 466 -31 66 -87 124 -150 155 -47 23 -72 27 -169 32 l-115 5 0 152 c0
117 -4 169 -19 227 -48 187 -168 334 -339 414 -31 14 -59 28 -61 30 -1 1 11
20 28 41 93 117 111 282 46 429 -34 76 -120 164 -203 205 -64 33 -71 34 -182
34 -110 0 -118 -2 -181 -32 -169 -84 -260 -239 -246 -422 4 -58 14 -91 41
-146 19 -39 44 -79 55 -89 19 -17 18 -19 -60 -58 -96 -48 -183 -126 -239 -214
l-40 -64 -334 0 -333 0 -36 59 c-50 79 -147 168 -237 215 -41 21 -77 40 -79
42 -1 1 11 20 28 41 53 67 74 128 79 231 4 78 1 102 -18 155 -49 133 -145 227
-278 271 -39 13 -77 17 -145 14 -78 -2 -102 -8 -157 -34 -156 -75 -250 -221
-250 -389 0 -88 37 -191 93 -259 l23 -29 -80 -40 c-149 -74 -277 -231 -322
-393 -10 -37 -18 -120 -21 -220 l-6 -162 -107 -4 c-131 -5 -194 -32 -264 -109
-76 -84 -76 -86 -76 -558 l0 -414 -24 22 c-38 36 -96 154 -111 228 -22 102
-22 4374 0 4476 41 195 197 360 386 411 46 13 325 15 1935 15 1702 1 1886 -1
1935 -15z m-4493 -2797 l2 -1508 -352 3 -353 3 -56 26 c-69 33 -129 91 -166
161 l-28 53 0 1260 0 1260 28 56 c49 100 148 172 261 189 28 5 188 8 356 7
l305 -2 3 -1508z m5972 1340 c232 -2 252 -8 338 -91 71 -67 93 -122 104 -256
4 -63 7 -651 6 -1306 l-3 -1190 -38 -77 c-30 -61 -49 -85 -90 -116 -100 -73
-77 -71 -657 -71 l-520 0 0 1555 0 1554 63 3 c58 3 306 1 797 -5z m-4287
-1260 c97 -57 143 -144 135 -252 -19 -230 -311 -319 -463 -142 -44 51 -70 133
-61 195 13 96 89 189 179 218 63 21 157 12 210 -19z m1992 5 c88 -45 145 -137
144 -232 0 -107 -46 -182 -142 -230 -114 -57 -241 -32 -322 63 -116 135 -61
340 110 411 53 22 156 16 210 -12z m-1825 -703 c69 -33 177 -115 166 -126 -2
-3 -43 -8 -91 -12 -103 -10 -154 -39 -193 -111 -24 -44 -24 -49 -19 -217 l6
-173 -365 0 -364 0 0 143 c0 78 5 162 11 186 34 150 158 283 307 332 49 16 84
18 262 16 l205 -2 75 -36z m1949 22 c166 -52 293 -199 320 -371 6 -36 11 -118
11 -182 l0 -118 -362 -2 c-200 -2 -366 -1 -370 2 -4 3 -2 70 3 150 13 172 4
227 -43 284 -44 54 -97 76 -185 76 -48 0 -73 4 -73 11 0 32 125 120 215 151
76 26 399 26 484 -1z m-569 -348 c18 -23 20 -36 16 -88 -3 -33 -13 -211 -22
-395 -13 -270 -19 -338 -32 -352 -14 -17 -57 -18 -638 -18 l-624 0 -13 23
c-11 16 -19 123 -32 421 l-18 399 22 19 c22 17 56 18 671 18 l649 0 21 -27z
m-1495 -665 c6 -160 10 -189 30 -234 25 -58 71 -97 130 -113 55 -15 1275 -15
1328 0 51 14 112 71 132 122 10 29 18 98 23 217 l7 175 545 3 c516 2 547 1
580 -17 19 -10 44 -34 55 -52 19 -33 20 -52 20 -461 0 -417 0 -427 -21 -455
-11 -15 -36 -38 -54 -50 l-33 -23 -1914 0 c-2076 0 -1950 -3 -2003 55 l-25 27
-3 441 c-2 427 -2 443 18 475 11 18 34 41 52 52 32 19 52 20 579 20 l547 0 7
-182z"/>
<path d="M4523 8671 c-100 -34 -167 -94 -212 -191 l-26 -55 0 -665 0 -665 22
-48 c34 -71 113 -150 186 -183 l62 -29 1705 0 1705 0 55 27 c80 39 132 88 171
160 l34 63 3 660 c3 656 2 660 -19 718 -30 79 -94 149 -177 189 l-67 33 -1695
2 c-1611 2 -1698 2 -1747 -16z m3409 -151 c48 -14 94 -53 119 -101 19 -38 19
-58 17 -667 l-3 -628 -25 -36 c-13 -20 -42 -48 -64 -62 l-40 -26 -1687 2
-1687 3 -38 31 c-21 16 -47 48 -58 70 -20 38 -21 54 -24 644 -3 671 -4 654 62
722 18 19 49 39 67 45 47 15 3308 17 3361 3z"/>
<path d="M4775 8175 c-45 -44 -24 -115 37 -130 13 -3 283 -4 601 -3 l579 3 19
24 c26 32 24 77 -6 106 l-24 25 -591 0 -591 0 -24 -25z"/>
<path d="M6945 8175 c-50 -49 -20 -125 50 -125 44 0 75 29 75 70 0 38 -39 80
-75 80 -14 0 -37 -11 -50 -25z"/>
<path d="M7286 8179 c-20 -16 -26 -29 -26 -58 0 -47 24 -71 72 -71 70 0 98 80
44 127 -33 28 -56 29 -90 2z"/>
<path d="M7615 8175 c-50 -49 -20 -125 50 -125 44 0 75 29 75 70 0 38 -39 80
-75 80 -14 0 -37 -11 -50 -25z"/>
<path d="M4804 7820 c-28 -11 -54 -48 -54 -78 0 -12 11 -34 25 -47 l24 -25
466 0 c450 0 466 1 485 20 44 44 31 109 -26 130 -32 12 -891 12 -920 0z"/>
<path d="M6942 7797 c-12 -13 -22 -36 -22 -51 0 -34 41 -76 75 -76 35 0 75 42
75 78 0 65 -83 97 -128 49z"/>
<path d="M7281 7802 c-33 -26 -31 -79 3 -109 31 -26 44 -28 80 -12 27 13 49
60 39 87 -18 52 -79 69 -122 34z"/>
<path d="M7611 7794 c-12 -15 -21 -38 -21 -51 0 -32 42 -73 75 -73 35 0 75 42
75 78 0 65 -89 97 -129 46z"/>
<path d="M4794 7438 c-47 -22 -56 -86 -19 -123 l24 -25 374 0 374 0 27 25 c37
34 35 76 -5 109 l-31 26 -361 -1 c-228 0 -370 -4 -383 -11z"/>
<path d="M6942 7417 c-29 -31 -28 -72 3 -102 30 -30 64 -32 99 -4 33 26 36 79
6 109 -28 28 -81 26 -108 -3z"/>
<path d="M7278 7423 c-37 -42 -29 -99 17 -123 67 -36 143 48 98 108 -25 34
-90 43 -115 15z"/>
<path d="M7610 7420 c-43 -43 -6 -130 55 -130 35 0 75 42 75 78 0 63 -85 97
-130 52z"/>
<path d="M3154 7360 c-29 -12 -54 -49 -54 -80 0 -31 31 -67 64 -76 28 -7 81
18 90 41 26 68 -37 140 -100 115z"/>
<path d="M3125 6875 c-50 -49 -15 -135 55 -135 43 0 80 39 80 83 0 70 -85 103
-135 52z"/>
<path d="M3145 6428 c-49 -26 -59 -77 -24 -122 42 -53 139 -21 139 46 0 40
-10 57 -41 73 -33 18 -47 18 -74 3z"/>
<path d="M3125 5955 c-51 -50 -17 -135 54 -135 47 0 81 33 81 79 0 42 -38 81
-80 81 -19 0 -40 -9 -55 -25z"/>
<path d="M3154 5510 c-28 -11 -54 -48 -54 -76 0 -29 34 -70 65 -78 29 -7 79
15 89 39 26 68 -37 140 -100 115z"/>
<path d="M9109 7166 c-59 -21 -96 -53 -123 -108 l-26 -52 0 -283 c0 -313 2
-324 67 -385 58 -55 77 -58 390 -58 l288 0 50 28 c34 18 59 42 80 76 l30 49 3
261 c4 307 -1 344 -59 410 -62 71 -92 76 -403 76 -187 -1 -271 -5 -297 -14z
m576 -171 l25 -24 0 -246 c0 -232 -1 -246 -20 -265 -19 -19 -33 -20 -277 -20
-225 0 -259 2 -275 17 -17 15 -18 37 -18 267 0 138 4 256 8 262 20 30 52 33
290 34 l243 0 24 -25z"/>
<path d="M9060 5893 c-8 -3 -25 -15 -37 -26 -45 -40 -18 -126 40 -128 138 -4
658 0 675 5 33 11 53 61 39 99 -18 54 -43 57 -389 56 -172 0 -320 -3 -328 -6z"/>
<path d="M9044 5506 c-62 -27 -60 -123 2 -147 18 -6 119 -9 270 -7 241 3 243
3 268 27 33 31 34 71 2 108 l-24 28 -244 2 c-189 2 -250 0 -274 -11z"/>
<path d="M6191 5073 c-46 -23 -71 -67 -71 -127 0 -66 28 -110 85 -132 60 -23
110 -12 152 32 111 118 -21 298 -166 227z"/>
</g>
</svg>
