<?xml version="1.0" standalone="no"?>
<!DOCTYPE svg PUBLIC "-//W3C//DTD SVG 20010904//EN"
 "http://www.w3.org/TR/2001/REC-SVG-20010904/DTD/svg10.dtd">
<svg version="1.0" xmlns="http://www.w3.org/2000/svg"
 width="1254.000000pt" height="1254.000000pt" viewBox="0 0 1254.000000 1254.000000"
 preserveAspectRatio="xMidYMid meet">

<g transform="translate(0.000000,1254.000000) scale(0.100000,-0.100000)"
fill="#000000" stroke="none">
<path d="M4010 9799 c-225 -19 -416 -175 -497 -406 l-28 -78 -3 -2432 c-3
-2698 -7 -2507 64 -2651 43 -88 142 -197 223 -246 67 -41 159 -73 234 -82 l55
-6 6 -61 c28 -242 220 -451 461 -502 39 -8 80 -15 93 -15 15 0 22 -6 22 -18 0
-11 14 -47 32 -82 39 -80 133 -174 214 -217 126 -67 9 -64 1956 -61 1979 3
1793 -4 1968 79 208 99 366 275 435 484 21 63 29 112 36 235 5 90 8 1068 7
2350 l-3 2195 -23 60 c-48 128 -146 228 -270 276 -43 16 -86 23 -173 27 l-116
4 -16 95 c-19 121 -61 208 -140 290 -108 113 -228 170 -378 180 l-87 6 -6 64
c-13 129 -73 252 -170 349 -70 69 -143 113 -236 143 -65 21 -73 21 -1825 23
-968 2 -1794 0 -1835 -3z m3619 -222 c67 -26 147 -91 186 -150 70 -106 65 91
63 -2603 l-3 -2429 -32 -65 c-39 -80 -109 -152 -183 -188 l-55 -27 -1820 0
-1820 0 -60 29 c-74 37 -144 108 -182 183 l-28 58 0 2465 0 2465 33 67 c51
104 146 178 262 204 43 10 455 12 1825 11 1668 -2 1773 -3 1814 -20z m664
-602 c75 -37 149 -117 176 -190 l21 -56 0 -2392 c0 -2621 4 -2446 -58 -2561
-42 -78 -128 -158 -218 -202 l-78 -39 -1795 0 -1796 0 -55 26 c-121 56 -203
165 -225 297 l-7 42 1654 0 c1819 0 1710 -3 1845 62 77 37 174 123 227 201 19
28 48 86 63 127 l28 75 3 2324 2 2324 78 -5 c58 -4 91 -12 135 -33z"/>
<path d="M4300 8919 c-58 -26 -105 -72 -138 -134 l-27 -50 0 -395 c0 -394 0
-395 23 -442 13 -26 43 -65 67 -87 78 -72 70 -71 515 -71 372 0 401 1 444 19
64 28 120 88 145 157 21 56 22 68 19 443 -3 376 -4 387 -25 427 -31 58 -79
103 -138 130 -50 24 -52 24 -445 24 -376 0 -397 -1 -440 -21z m810 -154 c15
-8 38 -27 49 -41 20 -26 21 -37 21 -381 0 -392 -1 -397 -64 -427 -29 -14 -80
-16 -378 -16 -375 0 -376 0 -415 59 -23 34 -23 36 -23 380 0 329 1 348 20 379
36 59 49 61 423 62 279 0 343 -3 367 -15z"/>
<path d="M4809 8441 l-145 -150 -58 58 c-64 64 -89 75 -134 55 -35 -14 -52
-41 -52 -82 0 -24 20 -48 109 -135 117 -114 137 -124 182 -88 14 10 100 98
192 194 189 198 199 216 149 267 -22 21 -40 30 -64 30 -30 1 -48 -15 -179
-149z"/>
<path d="M5728 8635 c-35 -19 -52 -71 -37 -112 23 -67 -27 -63 884 -63 l827 0
29 29 c21 22 29 39 29 66 0 27 -8 44 -29 66 l-29 29 -824 0 c-699 -1 -827 -3
-850 -15z"/>
<path d="M5726 8189 c-38 -30 -49 -64 -36 -105 22 -66 4 -64 536 -64 467 0
482 1 507 20 32 25 43 72 27 111 -25 59 -24 59 -538 59 -464 0 -470 0 -496
-21z"/>
<path d="M4300 7389 c-58 -26 -105 -72 -138 -134 l-27 -50 0 -390 c1 -383 1
-391 24 -440 27 -60 61 -98 121 -133 l45 -27 392 -3 c254 -2 407 1 432 8 69
18 133 71 166 135 l30 59 0 400 c0 396 0 401 -22 443 -28 51 -82 105 -131 130
-34 16 -73 18 -442 20 -390 3 -407 2 -450 -18z m804 -153 c18 -7 42 -26 54
-41 22 -27 22 -34 22 -387 l0 -360 -33 -33 c-44 -44 -71 -47 -452 -43 -337 3
-341 4 -375 61 -19 30 -20 53 -20 378 0 344 0 346 23 380 13 19 38 39 57 46
54 18 680 18 724 -1z"/>
<path d="M4940 7044 c-14 -8 -79 -73 -145 -143 -66 -71 -125 -129 -130 -130
-6 -1 -35 24 -65 54 -46 47 -60 55 -91 55 -52 0 -89 -32 -89 -77 0 -32 11 -47
93 -130 100 -103 136 -128 172 -119 26 7 359 346 382 390 12 23 12 33 2 57
-23 56 -77 74 -129 43z"/>
<path d="M5722 7095 c-56 -47 -51 -118 10 -155 32 -20 47 -20 851 -18 l819 3
29 33 c47 52 34 119 -28 151 -15 8 -256 11 -837 11 l-814 0 -30 -25z"/>
<path d="M5750 6667 c-24 -8 -41 -23 -53 -47 -21 -42 -15 -75 19 -110 l24 -25
486 0 486 0 30 34 c25 28 29 40 25 69 -8 44 -31 69 -76 82 -54 15 -896 12
-941 -3z"/>
<path d="M4332 5875 c-85 -27 -148 -87 -183 -175 -11 -28 -14 -115 -14 -425 0
-383 0 -391 22 -431 33 -61 70 -101 122 -132 l46 -27 402 -3 c394 -3 403 -2
453 19 67 29 135 104 155 172 22 74 22 750 0 824 -20 66 -80 134 -147 164 -53
24 -56 24 -433 26 -299 2 -389 -1 -423 -12z m788 -170 c59 -30 60 -39 60 -431
l0 -356 -34 -34 -34 -34 -369 0 c-404 0 -396 -1 -428 60 -23 45 -22 697 1 746
30 63 32 63 422 64 297 0 358 -2 382 -15z"/>
<path d="M5745 5421 c-64 -27 -81 -110 -32 -158 l27 -28 818 -3 c602 -2 824 1
845 9 70 29 75 132 7 172 -26 16 -100 17 -837 16 -444 0 -817 -4 -828 -8z"/>
</g>
</svg>
